<svg width="187" height="185" viewBox="0 0 187 185" fill="none" xmlns="http://www.w3.org/2000/svg">
<ellipse cx="97.2051" cy="84.6113" rx="69.0557" ry="68.5" fill="#0B96F3"/>
<g filter="url(#filter0_d_733_56)">
<ellipse cx="91.0557" cy="84.5" rx="69.0557" ry="68.5" fill="white"/>
</g>
<path d="M91.5642 76.9752C95.42 76.9752 98.5294 73.8656 98.5294 70.0101C98.5294 66.1545 95.4447 63.0449 91.5642 63.0449C87.7084 63.0449 84.5991 66.1545 84.5991 70.0101C84.6237 73.8908 87.7333 76.9752 91.5642 76.9752ZM75.395 97.1496H62.8825C58.8278 97.1496 58.6039 90.9556 62.9571 90.9556H73.8027L80.0217 81.8012C81.8625 79.2888 83.9521 78.0947 86.9122 78.0947H96.1909C99.1512 78.0947 101.241 79.1893 103.081 81.8012L109.325 90.9556H120.246C124.624 90.9556 124.35 97.1496 120.395 97.1496H107.883C106.887 97.1496 105.693 96.8012 104.997 95.7318L100.221 88.9159L100.196 105.981H83.0815L83.0566 88.9159L78.2804 95.7318C77.5839 96.7764 76.39 97.1496 75.395 97.1496Z" fill="#0B94F0"/>
<path d="M115.806 88.8852C120.036 88.8852 123.492 85.4516 123.492 81.1992C123.492 76.9468 120.058 73.5132 115.806 73.5132C111.554 73.5132 108.143 76.9696 108.143 81.222C108.143 85.4516 111.576 88.8852 115.806 88.8852ZM115.382 81.851C113.972 81.3584 113.092 80.6457 113.092 79.3799C113.092 78.2127 113.866 77.2954 115.283 77.0074V75.7415H116.344V76.9468C117.224 76.9468 117.86 77.1286 118.33 77.3789L117.898 78.895C117.55 78.751 116.981 78.5083 116.2 78.5083C115.42 78.5083 114.995 78.895 114.995 79.2814C114.995 79.8121 115.488 80.0167 116.549 80.4486C117.997 80.9793 118.671 81.7146 118.671 82.9196C118.671 84.1247 117.936 85.0421 116.382 85.3907V86.596H115.321V85.4287C114.404 85.4287 113.479 85.1863 113.032 84.9362L113.418 83.3823C113.911 83.6247 114.684 83.9129 115.503 83.9129C116.382 83.9129 116.814 83.5262 116.814 82.9958C116.814 82.4654 116.397 82.2453 115.382 81.851Z" fill="#0B94F0"/>
<path d="M72.8297 81.787C74.5149 80.3052 74.7249 77.7234 73.2367 76.0065C71.7549 74.3214 69.1732 74.1114 67.4563 75.5995L66.8711 76.1083L66.2861 75.5995C64.6009 74.1177 61.9872 74.3214 60.5056 76.0065C59.0175 77.6981 59.2272 80.3054 60.9124 81.787L66.7756 87.7964L72.8297 81.787Z" fill="#0B94F0"/>
<defs>
<filter id="filter0_d_733_56" x="0" y="0" width="186.111" height="185" filterUnits="userSpaceOnUse" color-interpolation-filters="sRGB">
<feFlood flood-opacity="0" result="BackgroundImageFix"/>
<feColorMatrix in="SourceAlpha" type="matrix" values="0 0 0 0 0 0 0 0 0 0 0 0 0 0 0 0 0 0 127 0" result="hardAlpha"/>
<feMorphology radius="3" operator="erode" in="SourceAlpha" result="effect1_dropShadow_733_56"/>
<feOffset dx="2" dy="8"/>
<feGaussianBlur stdDeviation="13.5"/>
<feComposite in2="hardAlpha" operator="out"/>
<feColorMatrix type="matrix" values="0 0 0 0 0 0 0 0 0 0 0 0 0 0 0 0 0 0 0.06 0"/>
<feBlend mode="normal" in2="BackgroundImageFix" result="effect1_dropShadow_733_56"/>
<feBlend mode="normal" in="SourceGraphic" in2="effect1_dropShadow_733_56" result="shape"/>
</filter>
</defs>
</svg>
