<svg width="187" height="186" viewBox="0 0 187 186" fill="none" xmlns="http://www.w3.org/2000/svg">
<ellipse cx="97.2412" cy="84.6392" rx="69.0557" ry="68.5" fill="#0B96F3"/>
<g filter="url(#filter0_d_732_204)">
<ellipse cx="91.0918" cy="84.5278" rx="69.0557" ry="68.5" fill="white"/>
</g>
<g clip-path="url(#clip0_732_204)">
<path d="M108.609 88.1063C111.784 88.1063 114.358 85.5338 114.358 82.359C114.358 79.1842 111.784 76.6099 108.609 76.6099C105.435 76.6099 102.861 79.1842 102.861 82.359C102.861 85.5338 105.435 88.1063 108.609 88.1063Z" fill="#0D74B8"/>
<path d="M115.97 93.646C115.714 92.1068 114.442 89.9525 113.479 88.9901C113.352 88.8625 112.785 88.833 112.632 88.9279C111.461 89.6481 110.086 90.0719 108.609 90.0719C107.135 90.0719 105.759 89.6481 104.588 88.9279C104.435 88.833 103.868 88.8625 103.742 88.9901C103.472 89.2593 103.179 89.6177 102.892 90.0333C103.667 91.4923 104.282 93.0421 104.503 94.3767C104.725 95.7146 104.653 96.9812 104.295 98.1359C105.568 98.5965 107.095 98.7986 108.609 98.7986C112.56 98.7986 116.603 97.4288 115.97 93.646Z" fill="#0D74B8"/>
<path d="M90.8885 85.6812C96.0337 85.6812 100.205 81.5097 100.205 76.3646C100.205 71.221 96.0337 67.0496 90.8885 67.0496C85.7441 67.0496 81.5742 71.221 81.5742 76.3646C81.5742 81.5097 85.744 85.6812 90.8885 85.6812Z" fill="#0D74B8"/>
<path d="M98.7775 87.1081C98.5753 86.9068 97.6573 86.8554 97.4076 87.0099C95.5084 88.1784 93.2796 88.8625 90.8886 88.8625C88.4993 88.8625 86.2695 88.1784 84.3712 87.0099C84.1217 86.8553 83.2036 86.9068 83.0015 87.1081C81.4369 88.671 79.3749 92.1649 78.9601 94.6558C77.9372 100.791 84.4907 103.006 90.8886 103.006C97.2882 103.006 103.842 100.791 102.819 94.6558C102.404 92.1649 100.342 88.671 98.7775 87.1081Z" fill="#0D74B8"/>
<path d="M73.463 88.1063C76.637 88.1063 79.2112 85.5338 79.2112 82.359C79.2112 79.1842 76.637 76.6099 73.463 76.6099C70.2881 76.6099 67.7139 79.1842 67.7139 82.359C67.7139 85.5338 70.2881 88.1063 73.463 88.1063Z" fill="#0D74B8"/>
<path d="M77.2758 94.3767C77.5116 92.975 78.1767 91.3246 79.0106 89.7986C78.7782 89.4811 78.5458 89.2045 78.3314 88.9901C78.2045 88.8625 77.6383 88.833 77.4845 88.9279C76.3135 89.6481 74.938 90.0719 73.4628 90.0719C71.9874 90.0719 70.6111 89.6481 69.4411 88.9279C69.2879 88.833 68.7202 88.8625 68.5933 88.9901C67.6278 89.9524 66.3587 92.1068 66.1017 93.646C65.4701 97.4288 69.5123 98.7986 73.4628 98.7986C74.8727 98.7986 76.2964 98.625 77.5116 98.2282C77.1287 97.05 77.0476 95.7538 77.2758 94.3767Z" fill="#0D74B8"/>
</g>
<defs>
<filter id="filter0_d_732_204" x="0.0361328" y="0.027832" width="186.111" height="185" filterUnits="userSpaceOnUse" color-interpolation-filters="sRGB">
<feFlood flood-opacity="0" result="BackgroundImageFix"/>
<feColorMatrix in="SourceAlpha" type="matrix" values="0 0 0 0 0 0 0 0 0 0 0 0 0 0 0 0 0 0 127 0" result="hardAlpha"/>
<feMorphology radius="3" operator="erode" in="SourceAlpha" result="effect1_dropShadow_732_204"/>
<feOffset dx="2" dy="8"/>
<feGaussianBlur stdDeviation="13.5"/>
<feComposite in2="hardAlpha" operator="out"/>
<feColorMatrix type="matrix" values="0 0 0 0 0 0 0 0 0 0 0 0 0 0 0 0 0 0 0.06 0"/>
<feBlend mode="normal" in2="BackgroundImageFix" result="effect1_dropShadow_732_204"/>
<feBlend mode="normal" in="SourceGraphic" in2="effect1_dropShadow_732_204" result="shape"/>
</filter>
<clipPath id="clip0_732_204">
<rect width="50" height="50" fill="white" transform="translate(66.0361 60.0278)"/>
</clipPath>
</defs>
</svg>
