<svg width="187" height="186" viewBox="0 0 187 186" fill="none" xmlns="http://www.w3.org/2000/svg">
<ellipse cx="97.2051" cy="84.6113" rx="69.0557" ry="68.5" fill="#0B96F3"/>
<g filter="url(#filter0_d_733_56)">
<ellipse cx="91.0918" cy="84.5278" rx="69.0557" ry="68.5" fill="white"/>
</g>
<g clip-path="url(#clip0_733_56)">
<path d="M108.573 88.0785C111.748 88.0785 114.322 85.506 114.322 82.3312C114.322 79.1563 111.748 76.582 108.573 76.582C105.399 76.582 102.825 79.1563 102.825 82.3312C102.825 85.506 105.399 88.0785 108.573 88.0785Z" fill="#0D74B8"/>
<path d="M115.934 93.6182C115.678 92.0789 114.406 89.9246 113.443 88.9622C113.316 88.8347 112.749 88.8052 112.596 88.9001C111.425 89.6202 110.049 90.0441 108.573 90.0441C107.099 90.0441 105.723 89.6202 104.552 88.9001C104.398 88.8052 103.832 88.8347 103.705 88.9622C103.436 89.2315 103.142 89.5899 102.856 90.0055C103.631 91.4645 104.245 93.0143 104.467 94.3488C104.689 95.6867 104.617 96.9533 104.258 98.108C105.532 98.5687 107.058 98.7708 108.573 98.7708C112.524 98.7708 116.567 97.401 115.934 93.6182Z" fill="#0D74B8"/>
<path d="M90.8523 85.6534C95.9976 85.6534 100.169 81.4819 100.169 76.3368C100.169 71.1932 95.9976 67.0217 90.8523 67.0217C85.708 67.0217 81.5381 71.1932 81.5381 76.3368C81.5381 81.4819 85.7079 85.6534 90.8523 85.6534Z" fill="#0D74B8"/>
<path d="M98.7411 87.0803C98.5389 86.879 97.6209 86.8275 97.3713 86.982C95.472 88.1506 93.2432 88.8347 90.8522 88.8347C88.463 88.8347 86.2331 88.1506 84.3348 86.982C84.0853 86.8274 83.1673 86.879 82.9651 87.0803C81.4006 88.6432 79.3385 92.1371 78.9237 94.6279C77.9009 100.763 84.4544 102.978 90.8522 102.978C97.2518 102.978 103.805 100.763 102.782 94.6279C102.368 92.1371 100.306 88.6432 98.7411 87.0803Z" fill="#0D74B8"/>
<path d="M73.4266 88.0785C76.6006 88.0785 79.1749 85.506 79.1749 82.3312C79.1749 79.1563 76.6006 76.582 73.4266 76.582C70.2517 76.582 67.6775 79.1563 67.6775 82.3312C67.6775 85.506 70.2517 88.0785 73.4266 88.0785Z" fill="#0D74B8"/>
<path d="M77.2397 94.3488C77.4754 92.9472 78.1406 91.2968 78.9745 89.7707C78.742 89.4532 78.5097 89.1767 78.2953 88.9622C78.1684 88.8347 77.6022 88.8052 77.4484 88.9001C76.2774 89.6202 74.9019 90.0441 73.4267 90.0441C71.9513 90.0441 70.5749 89.6202 69.4049 88.9001C69.2518 88.8052 68.684 88.8347 68.5572 88.9622C67.5916 89.9245 66.3226 92.0789 66.0656 93.6182C65.4339 97.401 69.4761 98.7707 73.4267 98.7707C74.8366 98.7707 76.2603 98.5972 77.4754 98.2004C77.0925 97.0222 77.0115 95.726 77.2397 94.3488Z" fill="#0D74B8"/>
</g>
<defs>
<filter id="filter0_d_733_56" x="0.0361328" y="0.027832" width="186.111" height="185" filterUnits="userSpaceOnUse" color-interpolation-filters="sRGB">
<feFlood flood-opacity="0" result="BackgroundImageFix"/>
<feColorMatrix in="SourceAlpha" type="matrix" values="0 0 0 0 0 0 0 0 0 0 0 0 0 0 0 0 0 0 127 0" result="hardAlpha"/>
<feMorphology radius="3" operator="erode" in="SourceAlpha" result="effect1_dropShadow_733_56"/>
<feOffset dx="2" dy="8"/>
<feGaussianBlur stdDeviation="13.5"/>
<feComposite in2="hardAlpha" operator="out"/>
<feColorMatrix type="matrix" values="0 0 0 0 0 0 0 0 0 0 0 0 0 0 0 0 0 0 0.06 0"/>
<feBlend mode="normal" in2="BackgroundImageFix" result="effect1_dropShadow_733_56"/>
<feBlend mode="normal" in="SourceGraphic" in2="effect1_dropShadow_733_56" result="shape"/>
</filter>
<clipPath id="clip0_733_56">
<rect width="50" height="50" fill="white" transform="translate(66 60)"/>
</clipPath>
</defs>
</svg>
